<svg width="60" height="62" viewBox="0 0 60 62" fill="none" xmlns="http://www.w3.org/2000/svg">
<path d="M20.0685 48.1227C20.0685 48.3648 19.7903 48.5586 19.4395 48.5586C19.0403 48.5949 18.7621 48.4012 18.7621 48.1227C18.7621 47.8805 19.0403 47.6867 19.3911 47.6867C19.754 47.6504 20.0685 47.8441 20.0685 48.1227ZM16.3065 47.5777C16.2218 47.8199 16.4637 48.0984 16.8266 48.1711C17.1411 48.2922 17.504 48.1711 17.5766 47.9289C17.6492 47.6867 17.4194 47.4082 17.0565 47.2992C16.7419 47.2145 16.3911 47.3355 16.3065 47.5777ZM21.6532 47.3719C21.3024 47.4566 21.0605 47.6867 21.0968 47.9652C21.1331 48.2074 21.4476 48.3648 21.8105 48.2801C22.1613 48.1953 22.4032 47.9652 22.3669 47.723C22.3306 47.493 22.004 47.3355 21.6532 47.3719ZM29.6129 0.96875C12.8347 0.96875 0 13.7199 0 30.5156C0 43.9449 8.44355 55.4367 20.504 59.4813C22.0524 59.7598 22.5968 58.8031 22.5968 58.016C22.5968 57.2652 22.5605 53.1238 22.5605 50.5809C22.5605 50.5809 14.0927 52.3973 12.3145 46.9723C12.3145 46.9723 10.9355 43.4484 8.95161 42.5402C8.95161 42.5402 6.18145 40.6391 9.14516 40.6754C9.14516 40.6754 12.1573 40.9176 13.8145 43.7996C16.4637 48.4738 20.9032 47.1297 22.6331 46.3305C22.9113 44.393 23.6976 43.0488 24.5685 42.2496C17.8065 41.4988 10.9839 40.518 10.9839 28.8687C10.9839 25.5387 11.9032 23.8676 13.8387 21.7363C13.5242 20.9492 12.496 17.7039 14.1532 13.5141C16.6815 12.727 22.5 16.7836 22.5 16.7836C24.9194 16.1055 27.5202 15.7543 30.0968 15.7543C32.6734 15.7543 35.2742 16.1055 37.6935 16.7836C37.6935 16.7836 43.5121 12.7148 46.0403 13.5141C47.6976 17.716 46.6694 20.9492 46.3548 21.7363C48.2903 23.8797 49.4758 25.5508 49.4758 28.8687C49.4758 40.5543 42.3508 41.4867 35.5887 42.2496C36.7016 43.2062 37.6452 45.0227 37.6452 47.8684C37.6452 51.9492 37.6089 56.9988 37.6089 57.9918C37.6089 58.7789 38.1653 59.7355 39.7016 59.457C51.7984 55.4367 60 43.9449 60 30.5156C60 13.7199 46.3911 0.96875 29.6129 0.96875ZM11.7581 42.734C11.6008 42.8551 11.6371 43.1336 11.8427 43.3637C12.0363 43.5574 12.3145 43.6422 12.4718 43.4848C12.629 43.3637 12.5927 43.0852 12.3871 42.8551C12.1935 42.6613 11.9153 42.5766 11.7581 42.734ZM10.4516 41.7531C10.3669 41.9105 10.4879 42.1043 10.7298 42.2254C10.9234 42.3465 11.1653 42.3102 11.25 42.1406C11.3347 41.9832 11.2137 41.7895 10.9718 41.6684C10.7298 41.5957 10.5363 41.632 10.4516 41.7531ZM14.371 46.0641C14.1774 46.2215 14.25 46.5848 14.5282 46.8148C14.8065 47.0934 15.1573 47.1297 15.3145 46.9359C15.4718 46.7785 15.3992 46.4152 15.1573 46.1852C14.8911 45.9066 14.5282 45.8703 14.371 46.0641ZM12.9919 44.284C12.7984 44.4051 12.7984 44.7199 12.9919 44.9984C13.1855 45.277 13.5121 45.398 13.6694 45.277C13.8629 45.1195 13.8629 44.8047 13.6694 44.5262C13.5 44.2477 13.1855 44.1266 12.9919 44.284Z" fill="black"/>
</svg>
