<svg width="60" height="69" viewBox="0 0 60 69" fill="none" xmlns="http://www.w3.org/2000/svg">
<path d="M53.5714 4.3125H6.42857C2.87946 4.3125 0 7.20996 0 10.7812V58.2188C0 61.79 2.87946 64.6875 6.42857 64.6875H53.5714C57.1205 64.6875 60 61.79 60 58.2188V10.7812C60 7.20996 57.1205 4.3125 53.5714 4.3125ZM47.0223 25.7133C47.0491 26.0906 47.0491 26.4814 47.0491 26.8588C47.0491 38.543 38.2098 52.0061 22.058 52.0061C17.0759 52.0061 12.4554 50.5506 8.57143 48.0439C9.28125 48.1248 9.96429 48.1518 10.6875 48.1518C14.7991 48.1518 18.5759 46.7502 21.5893 44.3783C17.7321 44.2975 14.4911 41.7504 13.3795 38.2465C14.7321 38.4486 15.9509 38.4486 17.3438 38.0848C13.3259 37.2627 10.3125 33.7049 10.3125 29.4059V29.298C11.4777 29.9584 12.8437 30.3627 14.2768 30.4166C13.072 29.6102 12.0844 28.5162 11.402 27.2323C10.7196 25.9484 10.3637 24.5144 10.3661 23.0584C10.3661 21.4143 10.7946 19.9049 11.558 18.5977C15.8839 23.9613 22.3795 27.4652 29.6652 27.8426C28.4196 21.8455 32.8795 16.9805 38.2366 16.9805C40.7679 16.9805 43.0446 18.0451 44.6518 19.7701C46.6339 19.3928 48.5357 18.6516 50.2232 17.6408C49.567 19.6893 48.1875 21.4143 46.3661 22.5059C48.1339 22.3172 49.8482 21.8186 51.4286 21.1313C50.2366 22.8967 48.7366 24.46 47.0223 25.7133Z" fill="#00ACEE"/>
</svg>
